:FULLY-SPECIFIED
:DEGREES
496
root 4.06804 16.4757 -3.74458 215.729 -93.7363 -209.304
lowerback 2.15198 0.782589 1.87775
upperback 0.614554 1.07953 0.925981
thorax -0.559538 0.534006 -0.131919
lowerneck -17.9441 -1.04569 -0.460545
upperneck 18.2091 -2.02723 2.90001
head 8.68506 -0.70308 0.798363
rclavicle -2.38542e-015 -1.59028e-015
rhumerus -27.1875 1.23676 -83.796
rradius 26.7895
rwrist 22.9218
rhand -27.3273 1.69448
rfingers 7.12502
rthumb -0.736159 -28.284
lclavicle -2.38542e-015 -1.59028e-015
lhumerus -30.2954 6.12906 87.994
lradius 19.5304
lwrist -16.9736
lhand -25.1954 1.62057
lfingers 7.12502
lthumb 1.32287 31.5962
rfemur 5.44198 11.7482 29.3354
rtibia 6.36111e-015
rfoot -8.48948 -14.4768
rtoes -5.40894
lfemur -34.2989 -13.4618 -15.0188
ltibia 23.7903
lfoot -6.1993 5.5065
ltoes -17.8013
497
root 4.06223 16.48 -3.73622 215.109 -93.6761 -208.699
lowerback 2.07997 0.818907 1.75855
upperback 0.610798 1.12403 0.903965
thorax -0.524242 0.556786 -0.087758
lowerneck -18.0036 -1.10635 -0.570966
upperneck 18.3691 -2.10554 2.97875
head 8.75386 -0.737878 0.833435
rclavicle -7.95139e-015 5.36719e-015
rhumerus -27.1278 1.50096 -83.9804
rradius 26.7985
rwrist 22.4312
rhand -27.2972 1.50627
rfingers 7.12502
rthumb -0.707169 -28.4723
lclavicle -7.95139e-015 5.36719e-015
lhumerus -30.4095 6.29274 87.9434
lradius 19.4077
lwrist -17.3072
lhand -25.0012 1.70709
lfingers 7.12502
lthumb 1.51045 31.6815
rfemur 5.9285 11.6404 29.3505
rtibia -1.59028e-015
rfoot -8.88805 -14.4603
rtoes -5.66117
lfemur -34.3754 -14.3427 -14.5373
ltibia 22.4357
lfoot -5.28797 6.13827
ltoes -17.2915
498
root 4.05554 16.4783 -3.72706 212.716 -93.6113 -206.396
lowerback 2.04623 0.828263 1.57535
upperback 0.60116 1.13275 0.808928
thorax -0.516779 0.561794 -0.0822603
lowerneck -17.912 -1.10471 -0.513929
upperneck 18.4921 -2.13273 3.00424
head 8.77988 -0.745009 0.829578
rclavicle -6.36111e-015 -6.93262e-015
rhumerus -27.1891 1.43069 -84.1235
rradius 26.8046
rwrist 22.7426
rhand -27.1932 1.70657
rfingers 7.12502
rthumb -0.606663 -28.2723
lclavicle -6.36111e-015 -6.93262e-015
lhumerus -30.5864 6.10169 87.9387
lradius 19.3433
lwrist -16.9926
lhand -24.9393 1.65949
lfingers 7.12502
lthumb 1.5702 31.6335
rfemur 6.52184 11.4658 29.2812
rtibia 1.43125e-014
rfoot -9.35534 -14.4362
rtoes -5.68711
lfemur -34.3331 -14.9915 -14.3584
ltibia 21.4856
lfoot -4.97634 6.56566
ltoes -16.433
499
root 4.04599 16.4692 -3.71663 212.518 -93.5472 -206.327
lowerback 1.99299 0.868838 1.51632
upperback 0.652304 1.18354 0.754388
thorax -0.434012 0.588005 -0.104807
lowerneck -17.9709 -1.16205 -0.529108
upperneck 18.6644 -2.22569 3.04415
head 8.85208 -0.784122 0.833842
rclavicle 2.22639e-014 1.03492e-014
rhumerus -27.128 1.5077 -84.2762
rradius 26.7268
rwrist 22.9344
rhand -27.1777 1.75229
rfingers 7.12502
rthumb -0.591761 -28.2266
lclavicle 2.22639e-014 1.03492e-014
lhumerus -30.6391 6.427 87.7288
lradius 19.1335
lwrist -17.5769
lhand -24.7503 1.69805
lfingers 7.12502
lthumb 1.75276 31.6706
rfemur 7.15886 11.3631 29.3478
rtibia -3.02153e-014
rfoot -9.82823 -14.4149
rtoes -5.78886
lfemur -34.2045 -15.1901 -14.293
ltibia 20.9251
lfoot -5.15861 6.60115
ltoes -16.5264
500
root 4.04235 16.4576 -3.70721 211.631 -93.5923 -205.486
lowerback 1.93347 0.842715 1.41014
upperback 0.648495 1.14587 0.731664
thorax -0.406714 0.569512 -0.0668492
lowerneck -17.943 -1.14976 -0.593777
upperneck 18.7699 -2.22777 3.17836
head 8.88584 -0.775492 0.890177
rclavicle 6.36111e-015 -3.35449e-015
rhumerus -27.1363 1.75403 -84.5282
rradius 26.7069
rwrist 22.5883
rhand -27.1442 1.612
rfingers 7.12502
rthumb -0.559391 -28.367
lclavicle 6.36111e-015 -3.35449e-015
lhumerus -30.7273 6.49859 87.6684
lradius 19.0275
lwrist -17.5203
lhand -24.6515 1.72562
lfingers 7.12502
lthumb 1.84816 31.6974
rfemur 7.70915 11.1563 29.4134
rtibia -1.59028e-015
rfoot -10.2588 -14.4023
rtoes -5.67836
lfemur -34.1574 -15.1499 -14.3709
ltibia 20.7125
lfoot -5.54599 6.36238
ltoes -16.7335
501
root 4.03912 16.4358 -3.69352 211.579 -93.6977 -205.557
lowerback 1.95444 0.843277 1.4821
upperback 0.665175 1.14797 0.685887
thorax -0.398986 0.570752 -0.154175
lowerneck -17.905 -1.20566 -0.586688
upperneck 18.8876 -2.32593 3.22832
head 8.92225 -0.815956 0.893671
rclavicle 1.43125e-014 -7.90169e-015
rhumerus -27.1343 1.59489 -84.6152
rradius 26.614
rwrist 22.9674
rhand -26.9932 1.83524
rfingers 7.12502
rthumb -0.413562 -28.1441
lclavicle 1.43125e-014 -7.90169e-015
lhumerus -30.7286 6.59818 87.5296
lradius 18.7496
lwrist -17.862
lhand -24.6274 1.57824
lfingers 7.12502
lthumb 1.87141 31.5498
rfemur 8.31232 10.9159 29.5657
rtibia 3.02153e-014
rfoot -10.6918 -14.3829
rtoes -5.92426
lfemur -34.0187 -14.8917 -14.5369
ltibia 20.8615
lfoot -5.89201 5.92699
ltoes -16.9818
502
root 4.03407 16.4132 -3.67888 211.045 -93.789 -205.096
lowerback 1.92993 0.802952 1.47063
upperback 0.671643 1.09346 0.669114
thorax -0.379266 0.543725 -0.163276
lowerneck -18.015 -1.20092 -0.611321
upperneck 19.1222 -2.33757 3.28205
head 9.02418 -0.814963 0.914712
rclavicle -1.27222e-014 -5.09386e-015
rhumerus -27.1402 1.76778 -84.8174
rradius 26.5015
rwrist 23.0468
rhand -27.0715 1.77122
rfingers 7.12502
rthumb -0.489188 -28.208
lclavicle -1.27222e-014 -5.09386e-015
lhumerus -30.804 6.72665 87.4397
lradius 18.6591
lwrist -17.9208
lhand -24.5006 1.75297
lfingers 7.12502
lthumb 1.99393 31.7234
rfemur 8.88654 10.6766 29.6646
rtibia 6.36111e-015
rfoot -11.0625 -14.3486
rtoes -6.38313
lfemur -33.9186 -14.5992 -14.7782
ltibia 21.312
lfoot -5.97794 5.59057
ltoes -17.1082
503
root 4.02965 16.3865 -3.66506 210.741 -93.8821 -204.946
lowerback 1.98238 0.816797 1.45318
upperback 0.703337 1.11194 0.658454
thorax -0.37606 0.553006 -0.165347
lowerneck -17.9625 -1.29065 -0.762916
upperneck 19.1325 -2.45712 3.44004
head 9.02499 -0.865653 0.978439
rclavicle -7.15625e-015 -5.34234e-015
rhumerus -27.193 1.57612 -84.8312
rradius 26.4167
rwrist 23.4696
rhand -26.9062 1.81946
rfingers 7.12502
rthumb -0.329527 -28.16
lclavicle -7.15625e-015 -5.34234e-015
lhumerus -30.7727 7.22353 87.2211
lradius 18.366
lwrist -18.3982
lhand -24.3958 1.61502
lfingers 7.12502
lthumb 2.09511 31.5845
rfemur 9.54633 10.4312 29.7974
rtibia -2.8625e-014
rfoot -11.4698 -14.3305
rtoes -6.57908
lfemur -33.6943 -14.0542 -15.1662
ltibia 22.033
lfoot -5.96516 5.2382
ltoes -16.8063
504
root 4.01638 16.3542 -3.64184 211.707 -93.8987 -206.168
lowerback 2.02512 0.8276 1.59128
upperback 0.767562 1.1282 0.622629
thorax -0.330575 0.561611 -0.279695
lowerneck -17.957 -1.30788 -0.754116
upperneck 19.2752 -2.50654 3.49954
head 9.07533 -0.881438 0.9912
rclavicle -3.97569e-015 1.39149e-015
rhumerus -27.3335 1.70629 -85.0106
rradius 26.4082
rwrist 23.5007
rhand -26.7875 1.77089
rfingers 7.12502
rthumb -0.214876 -28.2087
lclavicle -3.97569e-015 1.39149e-015
lhumerus -30.8118 7.55089 87.0121
lradius 18.1702
lwrist -18.782
lhand -24.268 1.74139
lfingers 7.12502
lthumb 2.21857 31.7096
rfemur 10.3375 10.2803 29.985
rtibia 2.8625e-014
rfoot -11.7859 -14.3987
rtoes -7.33874
lfemur -33.2796 -13.5665 -15.5367
ltibia 22.9732
lfoot -6.1027 5.15064
ltoes -16.221
505
root 4.00663 16.3227 -3.62368 212.776 -93.9419 -207.351
lowerback 2.00643 0.876704 1.62438
upperback 0.785079 1.19338 0.649785
thorax -0.300992 0.594324 -0.271344
lowerneck -18.021 -1.41325 -0.898884
upperneck 19.389 -2.6293 3.5502
head 9.13176 -0.942399 1.01655
rclavicle -1.90833e-014 2.88238e-015
rhumerus -27.5216 1.74516 -85.0626
rradius 26.4373
rwrist 23.3529
rhand -26.8238 1.77827
rfingers 7.12502
rthumb -0.2499 -28.2013
lclavicle -1.90833e-014 2.88238e-015
lhumerus -30.8421 7.80234 86.9133
lradius 17.9818
lwrist -19.0841
lhand -24.2549 1.67302
lfingers 7.12502
lthumb 2.23122 31.6411
rfemur 10.965 10.1306 30.1618
rtibia 0
rfoot -12.0913 -14.4208
rtoes -7.44817
lfemur -32.9978 -12.9537 -15.9036
ltibia 24.0706
lfoot -6.54816 5.06201
ltoes -15.245
